<svg width="22" height="22" viewBox="0 0 22 22" fill="none" xmlns="http://www.w3.org/2000/svg">
<path fill-rule="evenodd" clip-rule="evenodd" d="M1.26752 9.64329C0.800468 9.64112 0.420084 10.018 0.417913 10.485C0.415742 10.9521 0.792605 11.3325 1.25966 11.3346L9.40681 11.3725L9.36428 20.5216C9.36211 20.9886 9.73897 21.369 10.206 21.3712C10.6731 21.3734 11.0535 20.9965 11.0556 20.5295L11.0982 11.3804L20.2472 11.4229C20.7143 11.4251 21.0947 11.0482 21.0968 10.5812C21.099 10.1141 20.7221 9.73373 20.2551 9.73156L11.106 9.68902L11.1439 1.5419C11.1461 1.07485 10.7692 0.694463 10.3022 0.692292C9.8351 0.690121 9.45472 1.06698 9.45254 1.53404L9.41467 9.68116L1.26752 9.64329Z" fill="white" fill-opacity="0.48"/>
</svg>
